<svg xmlns="http://www.w3.org/2000/svg" xmlns:xlink="http://www.w3.org/1999/xlink" width="500" zoomAndPan="magnify" viewBox="0 0 375 374.999991" height="500" preserveAspectRatio="xMidYMid meet" version="1.0"><defs><clipPath id="d4b0ae5929"><path d="M 89.851562 89.851562 L 284.851562 89.851562 L 284.851562 284.851562 L 89.851562 284.851562 Z M 89.851562 89.851562 " clip-rule="nonzero"/></clipPath><clipPath id="5d5dca818b"><path d="M 93.476562 77.363281 L 112.976562 77.363281 L 112.976562 96.863281 L 93.476562 96.863281 Z M 93.476562 77.363281 " clip-rule="nonzero"/></clipPath><clipPath id="12e0f639a9"><path d="M 270.695312 70.40625 L 290.195312 70.40625 L 290.195312 89.90625 L 270.695312 89.90625 Z M 270.695312 70.40625 " clip-rule="nonzero"/></clipPath><clipPath id="c3a4f80c88"><path d="M 194.636719 68.082031 L 202 68.082031 L 202 75.582031 L 194.636719 75.582031 Z M 194.636719 68.082031 " clip-rule="nonzero"/></clipPath><clipPath id="529bca1caf"><path d="M 66.851562 170.09375 L 74.351562 170.09375 L 74.351562 177.59375 L 66.851562 177.59375 Z M 66.851562 170.09375 " clip-rule="nonzero"/></clipPath><clipPath id="260fa591af"><path d="M 61.855469 244.472656 L 81.355469 244.472656 L 81.355469 263.972656 L 61.855469 263.972656 Z M 61.855469 244.472656 " clip-rule="nonzero"/></clipPath><clipPath id="1589f06960"><path d="M 116.027344 299.769531 L 127.277344 299.769531 L 127.277344 311.019531 L 116.027344 311.019531 Z M 116.027344 299.769531 " clip-rule="nonzero"/></clipPath><clipPath id="b3784c88b3"><path d="M 200.371094 316.867188 L 206.371094 316.867188 L 206.371094 322.867188 L 200.371094 322.867188 Z M 200.371094 316.867188 " clip-rule="nonzero"/></clipPath><clipPath id="3715b89b7e"><path d="M 257.71875 293.957031 L 263.71875 293.957031 L 263.71875 299.957031 L 257.71875 299.957031 Z M 257.71875 293.957031 " clip-rule="nonzero"/></clipPath><clipPath id="1a55752822"><path d="M 279.335938 253.789062 L 285.335938 253.789062 L 285.335938 259.789062 L 279.335938 259.789062 Z M 279.335938 253.789062 " clip-rule="nonzero"/></clipPath><clipPath id="ddc8d02121"><path d="M 282.242188 215.539062 L 288.242188 215.539062 L 288.242188 221.539062 L 282.242188 221.539062 Z M 282.242188 215.539062 " clip-rule="nonzero"/></clipPath><clipPath id="77a48c68f1"><path d="M 147.964844 137.214844 L 226.714844 137.214844 L 226.714844 237.714844 L 147.964844 237.714844 Z M 147.964844 137.214844 " clip-rule="nonzero"/></clipPath></defs><g clip-path="url(#d4b0ae5929)"><path fill="#00af66" d="M 285.144531 187.5 C 285.144531 189.097656 285.105469 190.695312 285.027344 192.292969 C 284.949219 193.886719 284.832031 195.480469 284.675781 197.070312 C 284.519531 198.660156 284.324219 200.246094 284.089844 201.828125 C 283.855469 203.410156 283.582031 204.980469 283.269531 206.550781 C 282.957031 208.117188 282.609375 209.675781 282.21875 211.226562 C 281.832031 212.777344 281.40625 214.316406 280.941406 215.84375 C 280.476562 217.375 279.976562 218.890625 279.4375 220.394531 C 278.898438 221.902344 278.324219 223.390625 277.714844 224.867188 C 277.101562 226.34375 276.453125 227.804688 275.769531 229.25 C 275.089844 230.695312 274.371094 232.121094 273.617188 233.53125 C 272.863281 234.9375 272.074219 236.328125 271.253906 237.699219 C 270.433594 239.070312 269.578125 240.421875 268.691406 241.75 C 267.800781 243.078125 266.882812 244.382812 265.929688 245.667969 C 264.976562 246.953125 263.996094 248.210938 262.980469 249.445312 C 261.96875 250.679688 260.925781 251.890625 259.851562 253.074219 C 258.777344 254.257812 257.675781 255.417969 256.546875 256.546875 C 255.417969 257.675781 254.257812 258.777344 253.074219 259.851562 C 251.890625 260.925781 250.679688 261.96875 249.445312 262.980469 C 248.210938 263.996094 246.953125 264.976562 245.667969 265.929688 C 244.382812 266.882812 243.078125 267.800781 241.75 268.691406 C 240.421875 269.578125 239.070312 270.433594 237.699219 271.253906 C 236.328125 272.074219 234.9375 272.863281 233.53125 273.617188 C 232.121094 274.371094 230.695312 275.089844 229.25 275.769531 C 227.804688 276.453125 226.34375 277.101562 224.867188 277.714844 C 223.390625 278.324219 221.902344 278.898438 220.394531 279.4375 C 218.890625 279.976562 217.375 280.476562 215.84375 280.941406 C 214.316406 281.40625 212.777344 281.832031 211.226562 282.21875 C 209.675781 282.609375 208.117188 282.957031 206.550781 283.269531 C 204.980469 283.582031 203.410156 283.855469 201.828125 284.089844 C 200.246094 284.324219 198.660156 284.519531 197.070312 284.675781 C 195.480469 284.832031 193.886719 284.949219 192.292969 285.027344 C 190.695312 285.105469 189.097656 285.144531 187.5 285.144531 C 185.902344 285.144531 184.304688 285.105469 182.707031 285.027344 C 181.113281 284.949219 179.519531 284.832031 177.929688 284.675781 C 176.339844 284.519531 174.753906 284.324219 173.171875 284.089844 C 171.589844 283.855469 170.015625 283.582031 168.449219 283.269531 C 166.882812 282.957031 165.324219 282.609375 163.773438 282.21875 C 162.222656 281.832031 160.683594 281.40625 159.15625 280.941406 C 157.625 280.476562 156.109375 279.976562 154.605469 279.4375 C 153.097656 278.898438 151.609375 278.324219 150.132812 277.714844 C 148.65625 277.101562 147.195312 276.453125 145.75 275.769531 C 144.304688 275.089844 142.878906 274.371094 141.46875 273.617188 C 140.058594 272.863281 138.671875 272.074219 137.300781 271.253906 C 135.929688 270.433594 134.578125 269.578125 133.25 268.691406 C 131.921875 267.800781 130.617188 266.882812 129.332031 265.929688 C 128.046875 264.976562 126.789062 263.996094 125.554688 262.980469 C 124.316406 261.96875 123.109375 260.925781 121.925781 259.851562 C 120.742188 258.777344 119.582031 257.675781 118.453125 256.546875 C 117.324219 255.417969 116.222656 254.257812 115.148438 253.074219 C 114.074219 251.890625 113.03125 250.679688 112.019531 249.445312 C 111.003906 248.210938 110.019531 246.953125 109.070312 245.667969 C 108.117188 244.382812 107.199219 243.078125 106.308594 241.75 C 105.421875 240.421875 104.566406 239.070312 103.746094 237.699219 C 102.925781 236.328125 102.136719 234.9375 101.382812 233.53125 C 100.628906 232.121094 99.910156 230.695312 99.226562 229.25 C 98.546875 227.804688 97.898438 226.34375 97.285156 224.867188 C 96.675781 223.390625 96.101562 221.902344 95.5625 220.394531 C 95.023438 218.890625 94.523438 217.375 94.058594 215.84375 C 93.59375 214.316406 93.167969 212.777344 92.78125 211.226562 C 92.390625 209.675781 92.042969 208.117188 91.730469 206.550781 C 91.417969 204.980469 91.144531 203.410156 90.910156 201.828125 C 90.675781 200.246094 90.480469 198.660156 90.324219 197.070312 C 90.167969 195.480469 90.050781 193.886719 89.972656 192.292969 C 89.890625 190.695312 89.851562 189.097656 89.851562 187.5 C 89.851562 185.902344 89.890625 184.304688 89.972656 182.707031 C 90.050781 181.113281 90.167969 179.519531 90.324219 177.929688 C 90.480469 176.339844 90.675781 174.753906 90.910156 173.171875 C 91.144531 171.589844 91.417969 170.015625 91.730469 168.449219 C 92.042969 166.882812 92.390625 165.324219 92.78125 163.773438 C 93.167969 162.222656 93.59375 160.683594 94.058594 159.15625 C 94.523438 157.625 95.023438 156.109375 95.5625 154.605469 C 96.101562 153.097656 96.675781 151.609375 97.285156 150.132812 C 97.898438 148.65625 98.546875 147.195312 99.226562 145.75 C 99.910156 144.304688 100.628906 142.878906 101.382812 141.46875 C 102.136719 140.058594 102.925781 138.671875 103.746094 137.300781 C 104.566406 135.929688 105.421875 134.578125 106.308594 133.25 C 107.199219 131.921875 108.117188 130.617188 109.070312 129.332031 C 110.019531 128.046875 111.003906 126.789062 112.019531 125.554688 C 113.03125 124.316406 114.074219 123.109375 115.148438 121.925781 C 116.222656 120.742188 117.324219 119.582031 118.453125 118.453125 C 119.582031 117.324219 120.742188 116.222656 121.925781 115.148438 C 123.109375 114.074219 124.316406 113.03125 125.554688 112.019531 C 126.789062 111.003906 128.046875 110.019531 129.332031 109.070312 C 130.617188 108.117188 131.921875 107.199219 133.25 106.308594 C 134.578125 105.421875 135.929688 104.566406 137.300781 103.746094 C 138.671875 102.925781 140.058594 102.136719 141.46875 101.382812 C 142.878906 100.628906 144.304688 99.910156 145.75 99.226562 C 147.195312 98.546875 148.65625 97.898438 150.132812 97.285156 C 151.609375 96.675781 153.097656 96.101562 154.605469 95.5625 C 156.109375 95.023438 157.625 94.523438 159.15625 94.058594 C 160.683594 93.59375 162.222656 93.167969 163.773438 92.78125 C 165.324219 92.390625 166.882812 92.042969 168.449219 91.730469 C 170.015625 91.417969 171.589844 91.144531 173.171875 90.910156 C 174.753906 90.675781 176.339844 90.480469 177.929688 90.324219 C 179.519531 90.167969 181.113281 90.050781 182.707031 89.972656 C 184.304688 89.890625 185.902344 89.851562 187.5 89.851562 C 189.097656 89.851562 190.695312 89.890625 192.292969 89.972656 C 193.886719 90.050781 195.480469 90.167969 197.070312 90.324219 C 198.660156 90.480469 200.246094 90.675781 201.828125 90.910156 C 203.410156 91.144531 204.980469 91.417969 206.550781 91.730469 C 208.117188 92.042969 209.675781 92.390625 211.226562 92.78125 C 212.777344 93.167969 214.316406 93.59375 215.84375 94.058594 C 217.375 94.523438 218.890625 95.023438 220.394531 95.5625 C 221.902344 96.101562 223.390625 96.675781 224.867188 97.285156 C 226.34375 97.898438 227.804688 98.546875 229.25 99.226562 C 230.695312 99.910156 232.121094 100.628906 233.53125 101.382812 C 234.9375 102.136719 236.328125 102.925781 237.699219 103.746094 C 239.070312 104.566406 240.421875 105.421875 241.75 106.308594 C 243.078125 107.199219 244.382812 108.117188 245.667969 109.070312 C 246.953125 110.019531 248.210938 111.003906 249.445312 112.019531 C 250.679688 113.03125 251.890625 114.074219 253.074219 115.148438 C 254.257812 116.222656 255.417969 117.324219 256.546875 118.453125 C 257.675781 119.582031 258.777344 120.742188 259.851562 121.925781 C 260.925781 123.109375 261.96875 124.316406 262.980469 125.554688 C 263.996094 126.789062 264.976562 128.046875 265.929688 129.332031 C 266.882812 130.617188 267.800781 131.921875 268.691406 133.25 C 269.578125 134.578125 270.433594 135.929688 271.253906 137.300781 C 272.074219 138.671875 272.863281 140.058594 273.617188 141.46875 C 274.371094 142.878906 275.089844 144.304688 275.769531 145.75 C 276.453125 147.195312 277.101562 148.65625 277.714844 150.132812 C 278.324219 151.609375 278.898438 153.097656 279.4375 154.605469 C 279.976562 156.109375 280.476562 157.625 280.941406 159.15625 C 281.40625 160.683594 281.832031 162.222656 282.21875 163.773438 C 282.609375 165.324219 282.957031 166.882812 283.269531 168.449219 C 283.582031 170.015625 283.855469 171.589844 284.089844 173.171875 C 284.324219 174.753906 284.519531 176.339844 284.675781 177.929688 C 284.832031 179.519531 284.949219 181.113281 285.027344 182.707031 C 285.105469 184.304688 285.144531 185.902344 285.144531 187.5 Z M 285.144531 187.5 " fill-opacity="1" fill-rule="nonzero"/></g><g clip-path="url(#5d5dca818b)"><path fill="#00af66" d="M 113.023438 87.136719 C 113.023438 87.777344 112.960938 88.414062 112.835938 89.042969 C 112.710938 89.671875 112.527344 90.28125 112.28125 90.875 C 112.035156 91.46875 111.734375 92.03125 111.378906 92.566406 C 111.019531 93.097656 110.617188 93.59375 110.164062 94.046875 C 109.707031 94.5 109.214844 94.90625 108.679688 95.261719 C 108.148438 95.617188 107.585938 95.917969 106.992188 96.164062 C 106.398438 96.410156 105.789062 96.597656 105.15625 96.722656 C 104.527344 96.847656 103.894531 96.910156 103.25 96.910156 C 102.609375 96.910156 101.972656 96.847656 101.34375 96.722656 C 100.714844 96.597656 100.105469 96.410156 99.511719 96.164062 C 98.917969 95.917969 98.355469 95.617188 97.820312 95.261719 C 97.289062 94.90625 96.792969 94.5 96.339844 94.046875 C 95.886719 93.59375 95.480469 93.097656 95.125 92.566406 C 94.769531 92.03125 94.46875 91.46875 94.222656 90.875 C 93.976562 90.28125 93.789062 89.671875 93.664062 89.042969 C 93.539062 88.414062 93.476562 87.777344 93.476562 87.136719 C 93.476562 86.492188 93.539062 85.859375 93.664062 85.230469 C 93.789062 84.601562 93.976562 83.988281 94.222656 83.394531 C 94.46875 82.804688 94.769531 82.238281 95.125 81.707031 C 95.480469 81.171875 95.886719 80.679688 96.339844 80.226562 C 96.792969 79.769531 97.289062 79.367188 97.820312 79.007812 C 98.355469 78.652344 98.917969 78.351562 99.511719 78.105469 C 100.105469 77.859375 100.714844 77.675781 101.34375 77.550781 C 101.972656 77.425781 102.609375 77.363281 103.25 77.363281 C 103.894531 77.363281 104.527344 77.425781 105.15625 77.550781 C 105.789062 77.675781 106.398438 77.859375 106.992188 78.105469 C 107.585938 78.351562 108.148438 78.652344 108.679688 79.007812 C 109.214844 79.367188 109.707031 79.769531 110.164062 80.226562 C 110.617188 80.679688 111.019531 81.171875 111.378906 81.707031 C 111.734375 82.238281 112.035156 82.804688 112.28125 83.394531 C 112.527344 83.988281 112.710938 84.601562 112.835938 85.230469 C 112.960938 85.859375 113.023438 86.492188 113.023438 87.136719 Z M 113.023438 87.136719 " fill-opacity="1" fill-rule="nonzero"/></g><g clip-path="url(#12e0f639a9)"><path fill="#00af66" d="M 290.136719 80.125 C 290.136719 80.765625 290.074219 81.398438 289.949219 82.023438 C 289.824219 82.648438 289.640625 83.257812 289.394531 83.847656 C 289.152344 84.4375 288.851562 84.996094 288.496094 85.527344 C 288.140625 86.058594 287.738281 86.546875 287.289062 87 C 286.835938 87.449219 286.34375 87.855469 285.816406 88.207031 C 285.285156 88.5625 284.722656 88.863281 284.132812 89.105469 C 283.542969 89.351562 282.9375 89.535156 282.3125 89.660156 C 281.683594 89.785156 281.050781 89.847656 280.414062 89.847656 C 279.777344 89.847656 279.144531 89.785156 278.519531 89.660156 C 277.890625 89.535156 277.285156 89.351562 276.695312 89.105469 C 276.105469 88.863281 275.542969 88.5625 275.015625 88.207031 C 274.484375 87.855469 273.992188 87.449219 273.539062 87 C 273.089844 86.546875 272.6875 86.058594 272.332031 85.527344 C 271.976562 84.996094 271.679688 84.4375 271.433594 83.847656 C 271.1875 83.257812 271.003906 82.648438 270.878906 82.023438 C 270.753906 81.398438 270.695312 80.765625 270.695312 80.125 C 270.695312 79.488281 270.753906 78.855469 270.878906 78.230469 C 271.003906 77.605469 271.1875 76.996094 271.433594 76.40625 C 271.679688 75.816406 271.976562 75.257812 272.332031 74.726562 C 272.6875 74.195312 273.089844 73.703125 273.539062 73.253906 C 273.992188 72.800781 274.484375 72.398438 275.015625 72.042969 C 275.542969 71.6875 276.105469 71.390625 276.695312 71.144531 C 277.285156 70.902344 277.890625 70.714844 278.519531 70.59375 C 279.144531 70.46875 279.777344 70.40625 280.414062 70.40625 C 281.050781 70.40625 281.683594 70.46875 282.3125 70.59375 C 282.9375 70.714844 283.542969 70.902344 284.132812 71.144531 C 284.722656 71.390625 285.285156 71.6875 285.816406 72.042969 C 286.34375 72.398438 286.835938 72.800781 287.289062 73.253906 C 287.738281 73.703125 288.140625 74.195312 288.496094 74.726562 C 288.851562 75.257812 289.152344 75.816406 289.394531 76.40625 C 289.640625 76.996094 289.824219 77.605469 289.949219 78.230469 C 290.074219 78.855469 290.136719 79.488281 290.136719 80.125 Z M 290.136719 80.125 " fill-opacity="1" fill-rule="nonzero"/></g><g clip-path="url(#c3a4f80c88)"><path fill="#00af66" d="M 201.949219 71.738281 C 201.949219 72.222656 201.855469 72.691406 201.667969 73.136719 C 201.484375 73.585938 201.21875 73.980469 200.875 74.324219 C 200.535156 74.667969 200.140625 74.929688 199.691406 75.117188 C 199.242188 75.300781 198.777344 75.394531 198.292969 75.394531 C 197.808594 75.394531 197.339844 75.300781 196.890625 75.117188 C 196.445312 74.929688 196.050781 74.667969 195.707031 74.324219 C 195.363281 73.980469 195.097656 73.585938 194.914062 73.136719 C 194.726562 72.691406 194.636719 72.222656 194.636719 71.738281 C 194.636719 71.253906 194.726562 70.789062 194.914062 70.339844 C 195.097656 69.890625 195.363281 69.496094 195.707031 69.152344 C 196.050781 68.808594 196.445312 68.546875 196.890625 68.359375 C 197.339844 68.175781 197.808594 68.082031 198.292969 68.082031 C 198.777344 68.082031 199.242188 68.175781 199.691406 68.359375 C 200.140625 68.546875 200.535156 68.808594 200.875 69.152344 C 201.21875 69.496094 201.484375 69.890625 201.667969 70.339844 C 201.855469 70.789062 201.949219 71.253906 201.949219 71.738281 Z M 201.949219 71.738281 " fill-opacity="1" fill-rule="nonzero"/></g><g clip-path="url(#529bca1caf)"><path fill="#00af66" d="M 74.070312 173.703125 C 74.070312 174.183594 73.976562 174.644531 73.792969 175.085938 C 73.609375 175.527344 73.351562 175.917969 73.011719 176.253906 C 72.671875 176.59375 72.28125 176.855469 71.839844 177.039062 C 71.398438 177.222656 70.9375 177.3125 70.460938 177.3125 C 69.980469 177.3125 69.519531 177.222656 69.078125 177.039062 C 68.636719 176.855469 68.246094 176.59375 67.90625 176.253906 C 67.570312 175.917969 67.308594 175.527344 67.125 175.085938 C 66.941406 174.644531 66.851562 174.183594 66.851562 173.703125 C 66.851562 173.226562 66.941406 172.765625 67.125 172.324219 C 67.308594 171.878906 67.570312 171.488281 67.90625 171.152344 C 68.246094 170.8125 68.636719 170.550781 69.078125 170.367188 C 69.519531 170.1875 69.980469 170.09375 70.460938 170.09375 C 70.9375 170.09375 71.398438 170.1875 71.839844 170.367188 C 72.28125 170.550781 72.671875 170.8125 73.011719 171.152344 C 73.351562 171.488281 73.609375 171.878906 73.792969 172.324219 C 73.976562 172.765625 74.070312 173.226562 74.070312 173.703125 Z M 74.070312 173.703125 " fill-opacity="1" fill-rule="nonzero"/></g><g clip-path="url(#260fa591af)"><path fill="#00af66" d="M 81.296875 254.195312 C 81.296875 254.832031 81.234375 255.464844 81.109375 256.089844 C 80.984375 256.714844 80.800781 257.324219 80.558594 257.914062 C 80.3125 258.503906 80.011719 259.0625 79.660156 259.59375 C 79.304688 260.125 78.902344 260.617188 78.449219 261.066406 C 78 261.519531 77.507812 261.921875 76.976562 262.277344 C 76.445312 262.632812 75.886719 262.929688 75.296875 263.175781 C 74.707031 263.417969 74.097656 263.605469 73.472656 263.726562 C 72.847656 263.851562 72.214844 263.914062 71.574219 263.914062 C 70.9375 263.914062 70.304688 263.851562 69.679688 263.726562 C 69.054688 263.605469 68.445312 263.417969 67.855469 263.175781 C 67.265625 262.929688 66.707031 262.632812 66.175781 262.277344 C 65.644531 261.921875 65.152344 261.519531 64.703125 261.066406 C 64.25 260.617188 63.847656 260.125 63.492188 259.59375 C 63.140625 259.0625 62.839844 258.503906 62.59375 257.914062 C 62.351562 257.324219 62.167969 256.714844 62.042969 256.089844 C 61.917969 255.464844 61.855469 254.832031 61.855469 254.195312 C 61.855469 253.554688 61.917969 252.925781 62.042969 252.296875 C 62.167969 251.671875 62.351562 251.0625 62.59375 250.472656 C 62.839844 249.882812 63.140625 249.324219 63.492188 248.792969 C 63.847656 248.261719 64.25 247.773438 64.703125 247.320312 C 65.152344 246.871094 65.644531 246.464844 66.175781 246.113281 C 66.707031 245.757812 67.265625 245.457031 67.855469 245.214844 C 68.445312 244.96875 69.054688 244.785156 69.679688 244.660156 C 70.304688 244.535156 70.9375 244.472656 71.574219 244.472656 C 72.214844 244.472656 72.847656 244.535156 73.472656 244.660156 C 74.097656 244.785156 74.707031 244.96875 75.296875 245.214844 C 75.886719 245.457031 76.445312 245.757812 76.976562 246.113281 C 77.507812 246.464844 78 246.871094 78.449219 247.320312 C 78.902344 247.773438 79.304688 248.261719 79.660156 248.792969 C 80.011719 249.324219 80.3125 249.882812 80.558594 250.472656 C 80.800781 251.0625 80.984375 251.671875 81.109375 252.296875 C 81.234375 252.925781 81.296875 253.554688 81.296875 254.195312 Z M 81.296875 254.195312 " fill-opacity="1" fill-rule="nonzero"/></g><g clip-path="url(#1589f06960)"><path fill="#00af66" d="M 127.476562 305.492188 C 127.476562 305.867188 127.4375 306.242188 127.367188 306.609375 C 127.292969 306.976562 127.183594 307.335938 127.039062 307.683594 C 126.894531 308.03125 126.71875 308.359375 126.511719 308.671875 C 126.300781 308.984375 126.066406 309.273438 125.796875 309.539062 C 125.53125 309.804688 125.242188 310.042969 124.929688 310.253906 C 124.617188 310.460938 124.289062 310.636719 123.941406 310.78125 C 123.59375 310.925781 123.234375 311.035156 122.867188 311.105469 C 122.5 311.179688 122.125 311.21875 121.75 311.21875 C 121.375 311.21875 121.003906 311.179688 120.632812 311.105469 C 120.265625 311.035156 119.90625 310.925781 119.558594 310.78125 C 119.210938 310.636719 118.882812 310.460938 118.570312 310.253906 C 118.257812 310.042969 117.96875 309.804688 117.703125 309.539062 C 117.4375 309.273438 117.199219 308.984375 116.992188 308.671875 C 116.78125 308.359375 116.605469 308.03125 116.460938 307.683594 C 116.316406 307.335938 116.210938 306.976562 116.136719 306.609375 C 116.0625 306.242188 116.027344 305.867188 116.027344 305.492188 C 116.027344 305.117188 116.0625 304.746094 116.136719 304.375 C 116.210938 304.007812 116.316406 303.648438 116.460938 303.300781 C 116.605469 302.953125 116.78125 302.625 116.992188 302.3125 C 117.199219 302 117.4375 301.710938 117.703125 301.445312 C 117.96875 301.179688 118.257812 300.941406 118.570312 300.734375 C 118.882812 300.523438 119.210938 300.347656 119.558594 300.203125 C 119.90625 300.058594 120.265625 299.949219 120.632812 299.878906 C 121.003906 299.804688 121.375 299.769531 121.75 299.769531 C 122.125 299.769531 122.5 299.804688 122.867188 299.878906 C 123.234375 299.949219 123.59375 300.058594 123.941406 300.203125 C 124.289062 300.347656 124.617188 300.523438 124.929688 300.734375 C 125.242188 300.941406 125.53125 301.179688 125.796875 301.445312 C 126.066406 301.710938 126.300781 302 126.511719 302.3125 C 126.71875 302.625 126.894531 302.953125 127.039062 303.300781 C 127.183594 303.648438 127.292969 304.007812 127.367188 304.375 C 127.4375 304.746094 127.476562 305.117188 127.476562 305.492188 Z M 127.476562 305.492188 " fill-opacity="1" fill-rule="nonzero"/></g><g clip-path="url(#b3784c88b3)"><path fill="#00af66" d="M 206.171875 319.769531 C 206.171875 320.152344 206.097656 320.523438 205.949219 320.878906 C 205.804688 321.234375 205.59375 321.546875 205.320312 321.820312 C 205.050781 322.089844 204.734375 322.300781 204.378906 322.449219 C 204.023438 322.59375 203.65625 322.667969 203.269531 322.667969 C 202.886719 322.667969 202.515625 322.59375 202.160156 322.449219 C 201.804688 322.300781 201.492188 322.089844 201.21875 321.820312 C 200.949219 321.546875 200.738281 321.234375 200.589844 320.878906 C 200.445312 320.523438 200.371094 320.152344 200.371094 319.769531 C 200.371094 319.382812 200.445312 319.011719 200.589844 318.65625 C 200.738281 318.300781 200.949219 317.988281 201.21875 317.71875 C 201.492188 317.445312 201.804688 317.234375 202.160156 317.089844 C 202.515625 316.941406 202.886719 316.867188 203.269531 316.867188 C 203.65625 316.867188 204.023438 316.941406 204.378906 317.089844 C 204.734375 317.234375 205.050781 317.445312 205.320312 317.71875 C 205.59375 317.988281 205.804688 318.300781 205.949219 318.65625 C 206.097656 319.011719 206.171875 319.382812 206.171875 319.769531 Z M 206.171875 319.769531 " fill-opacity="1" fill-rule="nonzero"/></g><g clip-path="url(#3715b89b7e)"><path fill="#00af66" d="M 263.519531 296.855469 C 263.519531 297.242188 263.445312 297.609375 263.296875 297.964844 C 263.152344 298.320312 262.941406 298.636719 262.667969 298.90625 C 262.398438 299.179688 262.082031 299.386719 261.726562 299.535156 C 261.375 299.683594 261.003906 299.757812 260.617188 299.757812 C 260.234375 299.757812 259.863281 299.683594 259.507812 299.535156 C 259.152344 299.386719 258.839844 299.179688 258.566406 298.90625 C 258.296875 298.636719 258.085938 298.320312 257.9375 297.964844 C 257.792969 297.609375 257.71875 297.242188 257.71875 296.855469 C 257.71875 296.472656 257.792969 296.101562 257.9375 295.746094 C 258.085938 295.390625 258.296875 295.078125 258.566406 294.804688 C 258.839844 294.535156 259.152344 294.324219 259.507812 294.175781 C 259.863281 294.03125 260.234375 293.957031 260.617188 293.957031 C 261.003906 293.957031 261.375 294.03125 261.726562 294.175781 C 262.082031 294.324219 262.398438 294.535156 262.667969 294.804688 C 262.941406 295.078125 263.152344 295.390625 263.296875 295.746094 C 263.445312 296.101562 263.519531 296.472656 263.519531 296.855469 Z M 263.519531 296.855469 " fill-opacity="1" fill-rule="nonzero"/></g><g clip-path="url(#1a55752822)"><path fill="#00af66" d="M 285.136719 256.6875 C 285.136719 257.074219 285.0625 257.445312 284.914062 257.800781 C 284.765625 258.15625 284.558594 258.46875 284.285156 258.738281 C 284.015625 259.011719 283.699219 259.222656 283.34375 259.367188 C 282.988281 259.515625 282.621094 259.589844 282.234375 259.589844 C 281.851562 259.589844 281.480469 259.515625 281.125 259.367188 C 280.769531 259.222656 280.457031 259.011719 280.183594 258.738281 C 279.914062 258.46875 279.703125 258.15625 279.554688 257.800781 C 279.40625 257.445312 279.335938 257.074219 279.335938 256.6875 C 279.335938 256.304688 279.40625 255.933594 279.554688 255.578125 C 279.703125 255.222656 279.914062 254.910156 280.183594 254.636719 C 280.457031 254.367188 280.769531 254.15625 281.125 254.007812 C 281.480469 253.863281 281.851562 253.789062 282.234375 253.789062 C 282.621094 253.789062 282.988281 253.863281 283.34375 254.007812 C 283.699219 254.15625 284.015625 254.367188 284.285156 254.636719 C 284.558594 254.910156 284.765625 255.222656 284.914062 255.578125 C 285.0625 255.933594 285.136719 256.304688 285.136719 256.6875 Z M 285.136719 256.6875 " fill-opacity="1" fill-rule="nonzero"/></g><g clip-path="url(#ddc8d02121)"><path fill="#00af66" d="M 288.042969 218.4375 C 288.042969 218.824219 287.96875 219.195312 287.820312 219.550781 C 287.671875 219.90625 287.464844 220.21875 287.191406 220.488281 C 286.917969 220.761719 286.605469 220.972656 286.25 221.117188 C 285.894531 221.265625 285.527344 221.339844 285.140625 221.339844 C 284.757812 221.339844 284.386719 221.265625 284.03125 221.117188 C 283.675781 220.972656 283.363281 220.761719 283.089844 220.488281 C 282.816406 220.21875 282.609375 219.90625 282.460938 219.550781 C 282.3125 219.195312 282.242188 218.824219 282.242188 218.4375 C 282.242188 218.054688 282.3125 217.683594 282.460938 217.328125 C 282.609375 216.972656 282.816406 216.660156 283.089844 216.386719 C 283.363281 216.117188 283.675781 215.90625 284.03125 215.757812 C 284.386719 215.613281 284.757812 215.539062 285.140625 215.539062 C 285.527344 215.539062 285.894531 215.613281 286.25 215.757812 C 286.605469 215.90625 286.917969 216.117188 287.191406 216.386719 C 287.464844 216.660156 287.671875 216.972656 287.820312 217.328125 C 287.96875 217.683594 288.042969 218.054688 288.042969 218.4375 Z M 288.042969 218.4375 " fill-opacity="1" fill-rule="nonzero"/></g><g clip-path="url(#77a48c68f1)"><path fill="#ffffff" d="M 216.226562 173.128906 L 216.226562 165.945312 C 216.226562 165.003906 216.183594 164.066406 216.089844 163.128906 C 215.996094 162.195312 215.859375 161.265625 215.675781 160.339844 C 215.492188 159.417969 215.265625 158.507812 214.992188 157.605469 C 214.71875 156.707031 214.402344 155.820312 214.039062 154.953125 C 213.679688 154.082031 213.277344 153.234375 212.835938 152.402344 C 212.390625 151.574219 211.910156 150.765625 211.386719 149.984375 C 210.863281 149.203125 210.304688 148.445312 209.707031 147.71875 C 209.109375 146.992188 208.476562 146.296875 207.8125 145.628906 C 207.148438 144.964844 206.449219 144.332031 205.722656 143.738281 C 204.996094 143.140625 204.242188 142.582031 203.457031 142.058594 C 202.675781 141.535156 201.871094 141.050781 201.039062 140.609375 C 200.210938 140.164062 199.359375 139.761719 198.492188 139.402344 C 197.621094 139.042969 196.738281 138.726562 195.835938 138.453125 C 194.9375 138.179688 194.023438 137.949219 193.101562 137.765625 C 192.179688 137.582031 191.25 137.445312 190.3125 137.355469 C 189.375 137.261719 188.4375 137.214844 187.496094 137.214844 C 186.554688 137.214844 185.617188 137.261719 184.679688 137.355469 C 183.746094 137.445312 182.816406 137.582031 181.890625 137.765625 C 180.96875 137.949219 180.058594 138.179688 179.15625 138.453125 C 178.257812 138.726562 177.371094 139.042969 176.5 139.402344 C 175.632812 139.761719 174.78125 140.164062 173.953125 140.609375 C 173.125 141.050781 172.316406 141.535156 171.535156 142.058594 C 170.753906 142.582031 169.996094 143.140625 169.269531 143.738281 C 168.542969 144.332031 167.847656 144.964844 167.179688 145.628906 C 166.515625 146.296875 165.882812 146.992188 165.289062 147.71875 C 164.691406 148.445312 164.128906 149.203125 163.609375 149.984375 C 163.085938 150.765625 162.601562 151.574219 162.160156 152.402344 C 161.714844 153.234375 161.3125 154.082031 160.953125 154.953125 C 160.59375 155.820312 160.277344 156.707031 160.003906 157.605469 C 159.730469 158.507812 159.5 159.417969 159.316406 160.339844 C 159.132812 161.265625 158.996094 162.195312 158.902344 163.128906 C 158.8125 164.066406 158.765625 165.003906 158.765625 165.945312 L 158.765625 173.128906 C 158.058594 173.128906 157.359375 173.199219 156.664062 173.335938 C 155.96875 173.472656 155.296875 173.679688 154.644531 173.949219 C 153.988281 174.21875 153.367188 174.550781 152.78125 174.945312 C 152.191406 175.335938 151.648438 175.785156 151.148438 176.285156 C 150.648438 176.785156 150.199219 177.328125 149.808594 177.917969 C 149.414062 178.503906 149.082031 179.125 148.8125 179.78125 C 148.542969 180.433594 148.335938 181.105469 148.199219 181.800781 C 148.0625 182.496094 147.992188 183.195312 147.992188 183.902344 L 147.992188 227 C 147.992188 227.707031 148.0625 228.40625 148.199219 229.101562 C 148.335938 229.796875 148.542969 230.46875 148.8125 231.121094 C 149.082031 231.777344 149.414062 232.398438 149.808594 232.984375 C 150.199219 233.574219 150.648438 234.117188 151.148438 234.617188 C 151.648438 235.117188 152.191406 235.566406 152.78125 235.957031 C 153.367188 236.351562 153.988281 236.683594 154.644531 236.953125 C 155.296875 237.222656 155.96875 237.429688 156.664062 237.566406 C 157.359375 237.703125 158.058594 237.773438 158.765625 237.773438 L 216.226562 237.773438 C 216.933594 237.773438 217.636719 237.703125 218.328125 237.566406 C 219.023438 237.429688 219.699219 237.222656 220.351562 236.953125 C 221.003906 236.683594 221.625 236.351562 222.214844 235.957031 C 222.800781 235.566406 223.347656 235.117188 223.847656 234.617188 C 224.347656 234.117188 224.792969 233.574219 225.1875 232.984375 C 225.578125 232.398438 225.910156 231.777344 226.183594 231.121094 C 226.453125 230.46875 226.65625 229.796875 226.796875 229.101562 C 226.933594 228.40625 227.003906 227.707031 227.003906 227 L 227.003906 183.902344 C 227.003906 183.195312 226.933594 182.496094 226.796875 181.800781 C 226.65625 181.105469 226.453125 180.433594 226.183594 179.78125 C 225.910156 179.125 225.578125 178.503906 225.1875 177.917969 C 224.792969 177.328125 224.347656 176.785156 223.847656 176.285156 C 223.347656 175.785156 222.800781 175.335938 222.214844 174.945312 C 221.625 174.550781 221.003906 174.21875 220.351562 173.949219 C 219.699219 173.679688 219.023438 173.472656 218.328125 173.335938 C 217.636719 173.199219 216.933594 173.128906 216.226562 173.128906 Z M 165.949219 165.945312 C 165.949219 165.242188 165.984375 164.535156 166.050781 163.835938 C 166.121094 163.132812 166.226562 162.433594 166.363281 161.742188 C 166.5 161.050781 166.671875 160.367188 166.875 159.691406 C 167.082031 159.015625 167.320312 158.351562 167.589844 157.699219 C 167.859375 157.046875 168.160156 156.410156 168.492188 155.789062 C 168.824219 155.167969 169.1875 154.5625 169.582031 153.976562 C 169.972656 153.386719 170.390625 152.820312 170.839844 152.277344 C 171.289062 151.730469 171.761719 151.207031 172.261719 150.710938 C 172.757812 150.210938 173.28125 149.738281 173.828125 149.289062 C 174.371094 148.839844 174.9375 148.421875 175.523438 148.03125 C 176.113281 147.636719 176.714844 147.273438 177.339844 146.941406 C 177.960938 146.609375 178.597656 146.308594 179.25 146.039062 C 179.902344 145.769531 180.566406 145.53125 181.242188 145.324219 C 181.917969 145.121094 182.601562 144.949219 183.292969 144.8125 C 183.984375 144.675781 184.683594 144.570312 185.382812 144.5 C 186.085938 144.433594 186.792969 144.398438 187.496094 144.398438 C 188.203125 144.398438 188.90625 144.433594 189.609375 144.5 C 190.3125 144.570312 191.007812 144.675781 191.699219 144.8125 C 192.394531 144.949219 193.078125 145.121094 193.753906 145.324219 C 194.425781 145.53125 195.089844 145.769531 195.742188 146.039062 C 196.394531 146.308594 197.03125 146.609375 197.65625 146.941406 C 198.277344 147.273438 198.882812 147.636719 199.46875 148.03125 C 200.054688 148.421875 200.621094 148.839844 201.167969 149.289062 C 201.710938 149.738281 202.234375 150.210938 202.734375 150.710938 C 203.234375 151.207031 203.707031 151.730469 204.152344 152.277344 C 204.601562 152.820312 205.019531 153.386719 205.414062 153.976562 C 205.804688 154.5625 206.167969 155.167969 206.5 155.789062 C 206.832031 156.410156 207.132812 157.046875 207.40625 157.699219 C 207.675781 158.351562 207.914062 159.015625 208.117188 159.691406 C 208.320312 160.367188 208.492188 161.050781 208.632812 161.742188 C 208.769531 162.433594 208.871094 163.132812 208.941406 163.835938 C 209.011719 164.535156 209.046875 165.242188 209.046875 165.945312 L 209.046875 173.128906 L 165.949219 173.128906 Z M 191.089844 208.046875 L 191.089844 212.632812 C 191.089844 213.109375 190.996094 213.570312 190.816406 214.007812 C 190.632812 214.449219 190.375 214.835938 190.035156 215.171875 C 189.699219 215.511719 189.3125 215.769531 188.871094 215.953125 C 188.429688 216.132812 187.972656 216.226562 187.496094 216.226562 C 187.019531 216.226562 186.5625 216.132812 186.121094 215.953125 C 185.683594 215.769531 185.292969 215.511719 184.957031 215.171875 C 184.621094 214.835938 184.359375 214.449219 184.179688 214.007812 C 183.996094 213.570312 183.90625 213.109375 183.90625 212.632812 L 183.90625 208.046875 C 183.453125 207.785156 183.03125 207.476562 182.644531 207.125 C 182.257812 206.769531 181.914062 206.378906 181.613281 205.949219 C 181.3125 205.519531 181.0625 205.0625 180.859375 204.578125 C 180.660156 204.089844 180.515625 203.589844 180.421875 203.074219 C 180.332031 202.558594 180.296875 202.039062 180.320312 201.515625 C 180.34375 200.992188 180.421875 200.476562 180.558594 199.96875 C 180.695312 199.460938 180.882812 198.976562 181.125 198.511719 C 181.367188 198.046875 181.65625 197.613281 181.996094 197.210938 C 182.332031 196.808594 182.707031 196.449219 183.125 196.128906 C 183.539062 195.808594 183.984375 195.539062 184.460938 195.316406 C 184.9375 195.097656 185.429688 194.929688 185.941406 194.816406 C 186.453125 194.703125 186.972656 194.644531 187.496094 194.644531 C 188.019531 194.644531 188.539062 194.703125 189.050781 194.816406 C 189.5625 194.929688 190.058594 195.097656 190.53125 195.316406 C 191.007812 195.539062 191.453125 195.808594 191.871094 196.128906 C 192.285156 196.449219 192.660156 196.808594 193 197.210938 C 193.335938 197.613281 193.625 198.046875 193.867188 198.511719 C 194.109375 198.976562 194.300781 199.460938 194.433594 199.96875 C 194.570312 200.476562 194.648438 200.992188 194.671875 201.515625 C 194.695312 202.039062 194.660156 202.558594 194.570312 203.074219 C 194.480469 203.589844 194.332031 204.089844 194.132812 204.578125 C 193.933594 205.0625 193.679688 205.519531 193.378906 205.949219 C 193.078125 206.378906 192.734375 206.769531 192.347656 207.125 C 191.960938 207.476562 191.542969 207.785156 191.089844 208.046875 Z M 191.089844 208.046875 " fill-opacity="1" fill-rule="nonzero"/></g></svg>