<svg xmlns="http://www.w3.org/2000/svg" xmlns:xlink="http://www.w3.org/1999/xlink" width="500" zoomAndPan="magnify" viewBox="0 0 375 374.999991" height="500" preserveAspectRatio="xMidYMid meet" version="1.0"><defs><clipPath id="1f788407bb"><path d="M 89.851562 89.851562 L 284.851562 89.851562 L 284.851562 284.851562 L 89.851562 284.851562 Z M 89.851562 89.851562 " clip-rule="nonzero"/></clipPath><clipPath id="461d44f18b"><path d="M 142 141.480469 L 233.730469 141.480469 L 233.730469 233.730469 L 142 233.730469 Z M 142 141.480469 " clip-rule="nonzero"/></clipPath><clipPath id="994f479214"><path d="M 93.476562 77.363281 L 112.976562 77.363281 L 112.976562 96.863281 L 93.476562 96.863281 Z M 93.476562 77.363281 " clip-rule="nonzero"/></clipPath><clipPath id="12e66437eb"><path d="M 270.695312 70.40625 L 290.195312 70.40625 L 290.195312 89.90625 L 270.695312 89.90625 Z M 270.695312 70.40625 " clip-rule="nonzero"/></clipPath><clipPath id="451329608f"><path d="M 194.636719 68.082031 L 202 68.082031 L 202 75.582031 L 194.636719 75.582031 Z M 194.636719 68.082031 " clip-rule="nonzero"/></clipPath><clipPath id="3cd808eb4a"><path d="M 66.851562 170.09375 L 74.351562 170.09375 L 74.351562 177.59375 L 66.851562 177.59375 Z M 66.851562 170.09375 " clip-rule="nonzero"/></clipPath><clipPath id="0e976b9b8d"><path d="M 61.855469 244.472656 L 81.355469 244.472656 L 81.355469 263.972656 L 61.855469 263.972656 Z M 61.855469 244.472656 " clip-rule="nonzero"/></clipPath><clipPath id="b20fc3eb57"><path d="M 116.027344 299.769531 L 127.277344 299.769531 L 127.277344 311.019531 L 116.027344 311.019531 Z M 116.027344 299.769531 " clip-rule="nonzero"/></clipPath><clipPath id="735659a290"><path d="M 200.371094 316.867188 L 206.371094 316.867188 L 206.371094 322.867188 L 200.371094 322.867188 Z M 200.371094 316.867188 " clip-rule="nonzero"/></clipPath><clipPath id="86a4b32c99"><path d="M 257.71875 293.957031 L 263.71875 293.957031 L 263.71875 299.957031 L 257.71875 299.957031 Z M 257.71875 293.957031 " clip-rule="nonzero"/></clipPath><clipPath id="11e41cfd91"><path d="M 279.335938 253.789062 L 285.335938 253.789062 L 285.335938 259.789062 L 279.335938 259.789062 Z M 279.335938 253.789062 " clip-rule="nonzero"/></clipPath><clipPath id="c2698cfa03"><path d="M 282.242188 215.539062 L 288.242188 215.539062 L 288.242188 221.539062 L 282.242188 221.539062 Z M 282.242188 215.539062 " clip-rule="nonzero"/></clipPath></defs><g clip-path="url(#1f788407bb)"><path fill="#00af66" d="M 285.144531 187.5 C 285.144531 189.097656 285.105469 190.695312 285.027344 192.292969 C 284.949219 193.886719 284.832031 195.480469 284.675781 197.070312 C 284.519531 198.660156 284.324219 200.246094 284.089844 201.828125 C 283.855469 203.410156 283.582031 204.980469 283.269531 206.550781 C 282.957031 208.117188 282.609375 209.675781 282.21875 211.226562 C 281.832031 212.777344 281.40625 214.316406 280.941406 215.84375 C 280.476562 217.375 279.976562 218.890625 279.4375 220.394531 C 278.898438 221.902344 278.324219 223.390625 277.714844 224.867188 C 277.101562 226.34375 276.453125 227.804688 275.769531 229.25 C 275.089844 230.695312 274.371094 232.121094 273.617188 233.53125 C 272.863281 234.9375 272.074219 236.328125 271.253906 237.699219 C 270.433594 239.070312 269.578125 240.421875 268.691406 241.75 C 267.800781 243.078125 266.882812 244.382812 265.929688 245.667969 C 264.976562 246.953125 263.996094 248.210938 262.980469 249.445312 C 261.96875 250.679688 260.925781 251.890625 259.851562 253.074219 C 258.777344 254.257812 257.675781 255.417969 256.546875 256.546875 C 255.417969 257.675781 254.257812 258.777344 253.074219 259.851562 C 251.890625 260.925781 250.679688 261.96875 249.445312 262.980469 C 248.210938 263.996094 246.953125 264.976562 245.667969 265.929688 C 244.382812 266.882812 243.078125 267.800781 241.75 268.691406 C 240.421875 269.578125 239.070312 270.433594 237.699219 271.253906 C 236.328125 272.074219 234.9375 272.863281 233.53125 273.617188 C 232.121094 274.371094 230.695312 275.089844 229.25 275.769531 C 227.804688 276.453125 226.34375 277.101562 224.867188 277.714844 C 223.390625 278.324219 221.902344 278.898438 220.394531 279.4375 C 218.890625 279.976562 217.375 280.476562 215.84375 280.941406 C 214.316406 281.40625 212.777344 281.832031 211.226562 282.21875 C 209.675781 282.609375 208.117188 282.957031 206.550781 283.269531 C 204.980469 283.582031 203.410156 283.855469 201.828125 284.089844 C 200.246094 284.324219 198.660156 284.519531 197.070312 284.675781 C 195.480469 284.832031 193.886719 284.949219 192.292969 285.027344 C 190.695312 285.105469 189.097656 285.144531 187.5 285.144531 C 185.902344 285.144531 184.304688 285.105469 182.707031 285.027344 C 181.113281 284.949219 179.519531 284.832031 177.929688 284.675781 C 176.339844 284.519531 174.753906 284.324219 173.171875 284.089844 C 171.589844 283.855469 170.015625 283.582031 168.449219 283.269531 C 166.882812 282.957031 165.324219 282.609375 163.773438 282.21875 C 162.222656 281.832031 160.683594 281.40625 159.15625 280.941406 C 157.625 280.476562 156.109375 279.976562 154.605469 279.4375 C 153.097656 278.898438 151.609375 278.324219 150.132812 277.714844 C 148.65625 277.101562 147.195312 276.453125 145.75 275.769531 C 144.304688 275.089844 142.878906 274.371094 141.46875 273.617188 C 140.058594 272.863281 138.671875 272.074219 137.300781 271.253906 C 135.929688 270.433594 134.578125 269.578125 133.25 268.691406 C 131.921875 267.800781 130.617188 266.882812 129.332031 265.929688 C 128.046875 264.976562 126.789062 263.996094 125.554688 262.980469 C 124.316406 261.96875 123.109375 260.925781 121.925781 259.851562 C 120.742188 258.777344 119.582031 257.675781 118.453125 256.546875 C 117.324219 255.417969 116.222656 254.257812 115.148438 253.074219 C 114.074219 251.890625 113.03125 250.679688 112.019531 249.445312 C 111.003906 248.210938 110.019531 246.953125 109.070312 245.667969 C 108.117188 244.382812 107.199219 243.078125 106.308594 241.75 C 105.421875 240.421875 104.566406 239.070312 103.746094 237.699219 C 102.925781 236.328125 102.136719 234.9375 101.382812 233.53125 C 100.628906 232.121094 99.910156 230.695312 99.226562 229.25 C 98.546875 227.804688 97.898438 226.34375 97.285156 224.867188 C 96.675781 223.390625 96.101562 221.902344 95.5625 220.394531 C 95.023438 218.890625 94.523438 217.375 94.058594 215.84375 C 93.59375 214.316406 93.167969 212.777344 92.78125 211.226562 C 92.390625 209.675781 92.042969 208.117188 91.730469 206.550781 C 91.417969 204.980469 91.144531 203.410156 90.910156 201.828125 C 90.675781 200.246094 90.480469 198.660156 90.324219 197.070312 C 90.167969 195.480469 90.050781 193.886719 89.972656 192.292969 C 89.890625 190.695312 89.851562 189.097656 89.851562 187.5 C 89.851562 185.902344 89.890625 184.304688 89.972656 182.707031 C 90.050781 181.113281 90.167969 179.519531 90.324219 177.929688 C 90.480469 176.339844 90.675781 174.753906 90.910156 173.171875 C 91.144531 171.589844 91.417969 170.015625 91.730469 168.449219 C 92.042969 166.882812 92.390625 165.324219 92.78125 163.773438 C 93.167969 162.222656 93.59375 160.683594 94.058594 159.15625 C 94.523438 157.625 95.023438 156.109375 95.5625 154.605469 C 96.101562 153.097656 96.675781 151.609375 97.285156 150.132812 C 97.898438 148.65625 98.546875 147.195312 99.226562 145.75 C 99.910156 144.304688 100.628906 142.878906 101.382812 141.46875 C 102.136719 140.058594 102.925781 138.671875 103.746094 137.300781 C 104.566406 135.929688 105.421875 134.578125 106.308594 133.25 C 107.199219 131.921875 108.117188 130.617188 109.070312 129.332031 C 110.019531 128.046875 111.003906 126.789062 112.019531 125.554688 C 113.03125 124.316406 114.074219 123.109375 115.148438 121.925781 C 116.222656 120.742188 117.324219 119.582031 118.453125 118.453125 C 119.582031 117.324219 120.742188 116.222656 121.925781 115.148438 C 123.109375 114.074219 124.316406 113.03125 125.554688 112.019531 C 126.789062 111.003906 128.046875 110.019531 129.332031 109.070312 C 130.617188 108.117188 131.921875 107.199219 133.25 106.308594 C 134.578125 105.421875 135.929688 104.566406 137.300781 103.746094 C 138.671875 102.925781 140.058594 102.136719 141.46875 101.382812 C 142.878906 100.628906 144.304688 99.910156 145.75 99.226562 C 147.195312 98.546875 148.65625 97.898438 150.132812 97.285156 C 151.609375 96.675781 153.097656 96.101562 154.605469 95.5625 C 156.109375 95.023438 157.625 94.523438 159.15625 94.058594 C 160.683594 93.59375 162.222656 93.167969 163.773438 92.78125 C 165.324219 92.390625 166.882812 92.042969 168.449219 91.730469 C 170.015625 91.417969 171.589844 91.144531 173.171875 90.910156 C 174.753906 90.675781 176.339844 90.480469 177.929688 90.324219 C 179.519531 90.167969 181.113281 90.050781 182.707031 89.972656 C 184.304688 89.890625 185.902344 89.851562 187.5 89.851562 C 189.097656 89.851562 190.695312 89.890625 192.292969 89.972656 C 193.886719 90.050781 195.480469 90.167969 197.070312 90.324219 C 198.660156 90.480469 200.246094 90.675781 201.828125 90.910156 C 203.410156 91.144531 204.980469 91.417969 206.550781 91.730469 C 208.117188 92.042969 209.675781 92.390625 211.226562 92.78125 C 212.777344 93.167969 214.316406 93.59375 215.84375 94.058594 C 217.375 94.523438 218.890625 95.023438 220.394531 95.5625 C 221.902344 96.101562 223.390625 96.675781 224.867188 97.285156 C 226.34375 97.898438 227.804688 98.546875 229.25 99.226562 C 230.695312 99.910156 232.121094 100.628906 233.53125 101.382812 C 234.9375 102.136719 236.328125 102.925781 237.699219 103.746094 C 239.070312 104.566406 240.421875 105.421875 241.75 106.308594 C 243.078125 107.199219 244.382812 108.117188 245.667969 109.070312 C 246.953125 110.019531 248.210938 111.003906 249.445312 112.019531 C 250.679688 113.03125 251.890625 114.074219 253.074219 115.148438 C 254.257812 116.222656 255.417969 117.324219 256.546875 118.453125 C 257.675781 119.582031 258.777344 120.742188 259.851562 121.925781 C 260.925781 123.109375 261.96875 124.316406 262.980469 125.554688 C 263.996094 126.789062 264.976562 128.046875 265.929688 129.332031 C 266.882812 130.617188 267.800781 131.921875 268.691406 133.25 C 269.578125 134.578125 270.433594 135.929688 271.253906 137.300781 C 272.074219 138.671875 272.863281 140.058594 273.617188 141.46875 C 274.371094 142.878906 275.089844 144.304688 275.769531 145.75 C 276.453125 147.195312 277.101562 148.65625 277.714844 150.132812 C 278.324219 151.609375 278.898438 153.097656 279.4375 154.605469 C 279.976562 156.109375 280.476562 157.625 280.941406 159.15625 C 281.40625 160.683594 281.832031 162.222656 282.21875 163.773438 C 282.609375 165.324219 282.957031 166.882812 283.269531 168.449219 C 283.582031 170.015625 283.855469 171.589844 284.089844 173.171875 C 284.324219 174.753906 284.519531 176.339844 284.675781 177.929688 C 284.832031 179.519531 284.949219 181.113281 285.027344 182.707031 C 285.105469 184.304688 285.144531 185.902344 285.144531 187.5 Z M 285.144531 187.5 " fill-opacity="1" fill-rule="nonzero"/></g><g clip-path="url(#461d44f18b)"><path fill="#ffffff" d="M 162.457031 166.691406 C 162.457031 165.867188 162.5 165.046875 162.582031 164.226562 C 162.660156 163.40625 162.785156 162.59375 162.945312 161.785156 C 163.105469 160.976562 163.308594 160.179688 163.546875 159.390625 C 163.785156 158.601562 164.0625 157.828125 164.378906 157.066406 C 164.695312 156.304688 165.046875 155.558594 165.4375 154.832031 C 165.824219 154.105469 166.25 153.402344 166.707031 152.714844 C 167.164062 152.03125 167.65625 151.371094 168.175781 150.734375 C 168.699219 150.097656 169.253906 149.484375 169.835938 148.902344 C 170.417969 148.320312 171.027344 147.769531 171.664062 147.246094 C 172.300781 146.722656 172.964844 146.230469 173.648438 145.773438 C 174.332031 145.316406 175.039062 144.890625 175.765625 144.503906 C 176.492188 144.113281 177.234375 143.761719 177.996094 143.445312 C 178.757812 143.128906 179.53125 142.851562 180.320312 142.613281 C 181.109375 142.371094 181.90625 142.171875 182.714844 142.011719 C 183.523438 141.847656 184.339844 141.726562 185.160156 141.644531 C 185.976562 141.5625 186.800781 141.523438 187.625 141.523438 C 220.890625 142.699219 220.957031 190.582031 187.710938 191.859375 C 186.882812 191.863281 186.058594 191.824219 185.238281 191.746094 C 184.417969 191.664062 183.601562 191.546875 182.789062 191.386719 C 181.980469 191.226562 181.179688 191.027344 180.386719 190.789062 C 179.597656 190.554688 178.820312 190.277344 178.054688 189.960938 C 177.292969 189.648438 176.546875 189.296875 175.816406 188.910156 C 175.089844 188.519531 174.378906 188.097656 173.691406 187.640625 C 173.003906 187.183594 172.339844 186.691406 171.703125 186.171875 C 171.0625 185.648438 170.449219 185.09375 169.867188 184.511719 C 169.28125 183.929688 168.726562 183.320312 168.203125 182.679688 C 167.675781 182.042969 167.183594 181.382812 166.722656 180.695312 C 166.265625 180.011719 165.839844 179.304688 165.449219 178.574219 C 165.058594 177.847656 164.703125 177.101562 164.386719 176.339844 C 164.070312 175.578125 163.792969 174.800781 163.550781 174.011719 C 163.308594 173.222656 163.109375 172.421875 162.945312 171.613281 C 162.785156 170.800781 162.664062 169.984375 162.582031 169.164062 C 162.5 168.34375 162.457031 167.519531 162.457031 166.691406 Z M 213.097656 191.871094 C 212.761719 191.667969 212.40625 191.511719 212.027344 191.410156 C 211.644531 191.308594 211.257812 191.261719 210.867188 191.273438 C 210.472656 191.28125 210.089844 191.347656 209.714844 191.46875 C 209.339844 191.589844 208.992188 191.757812 208.667969 191.980469 C 207.917969 192.589844 207.144531 193.164062 206.34375 193.707031 C 205.546875 194.25 204.722656 194.757812 203.882812 195.226562 C 203.039062 195.699219 202.175781 196.132812 201.296875 196.53125 C 200.417969 196.925781 199.519531 197.285156 198.609375 197.605469 C 197.699219 197.925781 196.773438 198.203125 195.839844 198.445312 C 194.902344 198.683594 193.960938 198.882812 193.007812 199.042969 C 192.054688 199.203125 191.097656 199.320312 190.132812 199.394531 C 189.171875 199.472656 188.207031 199.507812 187.242188 199.5 C 186.277344 199.492188 185.3125 199.445312 184.351562 199.355469 C 183.390625 199.265625 182.433594 199.132812 181.484375 198.960938 C 180.535156 198.789062 179.59375 198.578125 178.660156 198.324219 C 177.730469 198.070312 176.808594 197.777344 175.902344 197.445312 C 174.996094 197.113281 174.105469 196.742188 173.230469 196.332031 C 172.355469 195.921875 171.5 195.476562 170.664062 194.992188 C 169.828125 194.511719 169.015625 193.992188 168.222656 193.441406 C 167.433594 192.886719 166.664062 192.300781 165.925781 191.679688 C 165.355469 191.421875 164.761719 191.304688 164.136719 191.339844 C 163.515625 191.371094 162.933594 191.546875 162.398438 191.867188 C 160.847656 192.894531 159.371094 194.015625 157.960938 195.230469 C 156.550781 196.441406 155.21875 197.738281 153.96875 199.113281 C 152.71875 200.488281 151.558594 201.9375 150.484375 203.457031 C 149.414062 204.976562 148.4375 206.558594 147.5625 208.195312 C 146.683594 209.835938 145.914062 211.523438 145.242188 213.257812 C 144.574219 214.996094 144.015625 216.765625 143.566406 218.570312 C 143.113281 220.371094 142.777344 222.199219 142.550781 224.042969 C 142.324219 225.890625 142.214844 227.742188 142.21875 229.601562 C 142.21875 230.113281 142.316406 230.609375 142.511719 231.082031 C 142.707031 231.554688 142.988281 231.972656 143.347656 232.335938 C 143.710938 232.699219 144.128906 232.980469 144.605469 233.175781 C 145.078125 233.371094 145.570312 233.46875 146.085938 233.46875 L 229.292969 233.46875 C 229.804688 233.46875 230.300781 233.371094 230.773438 233.175781 C 231.246094 232.980469 231.664062 232.699219 232.027344 232.335938 C 232.390625 231.972656 232.671875 231.554688 232.867188 231.082031 C 233.0625 230.609375 233.160156 230.113281 233.160156 229.601562 C 233.160156 227.746094 233.042969 225.898438 232.816406 224.058594 C 232.589844 222.214844 232.25 220.394531 231.800781 218.59375 C 231.351562 216.792969 230.796875 215.027344 230.128906 213.296875 C 229.464844 211.5625 228.695312 209.878906 227.824219 208.238281 C 226.953125 206.601562 225.988281 205.023438 224.921875 203.503906 C 223.859375 201.980469 222.707031 200.53125 221.464844 199.152344 C 220.222656 197.773438 218.902344 196.476562 217.503906 195.257812 C 216.105469 194.039062 214.636719 192.910156 213.097656 191.871094 Z M 213.097656 191.871094 " fill-opacity="1" fill-rule="nonzero"/></g><g clip-path="url(#994f479214)"><path fill="#00af66" d="M 113.023438 87.136719 C 113.023438 87.777344 112.960938 88.414062 112.835938 89.042969 C 112.710938 89.671875 112.527344 90.28125 112.28125 90.875 C 112.035156 91.46875 111.734375 92.03125 111.378906 92.566406 C 111.019531 93.097656 110.617188 93.59375 110.164062 94.046875 C 109.707031 94.5 109.214844 94.90625 108.679688 95.261719 C 108.148438 95.617188 107.585938 95.917969 106.992188 96.164062 C 106.398438 96.410156 105.789062 96.597656 105.15625 96.722656 C 104.527344 96.847656 103.894531 96.910156 103.25 96.910156 C 102.609375 96.910156 101.972656 96.847656 101.34375 96.722656 C 100.714844 96.597656 100.105469 96.410156 99.511719 96.164062 C 98.917969 95.917969 98.355469 95.617188 97.820312 95.261719 C 97.289062 94.90625 96.792969 94.5 96.339844 94.046875 C 95.886719 93.59375 95.480469 93.097656 95.125 92.566406 C 94.769531 92.03125 94.46875 91.46875 94.222656 90.875 C 93.976562 90.28125 93.789062 89.671875 93.664062 89.042969 C 93.539062 88.414062 93.476562 87.777344 93.476562 87.136719 C 93.476562 86.492188 93.539062 85.859375 93.664062 85.230469 C 93.789062 84.601562 93.976562 83.988281 94.222656 83.394531 C 94.46875 82.804688 94.769531 82.238281 95.125 81.707031 C 95.480469 81.171875 95.886719 80.679688 96.339844 80.226562 C 96.792969 79.769531 97.289062 79.367188 97.820312 79.007812 C 98.355469 78.652344 98.917969 78.351562 99.511719 78.105469 C 100.105469 77.859375 100.714844 77.675781 101.34375 77.550781 C 101.972656 77.425781 102.609375 77.363281 103.25 77.363281 C 103.894531 77.363281 104.527344 77.425781 105.15625 77.550781 C 105.789062 77.675781 106.398438 77.859375 106.992188 78.105469 C 107.585938 78.351562 108.148438 78.652344 108.679688 79.007812 C 109.214844 79.367188 109.707031 79.769531 110.164062 80.226562 C 110.617188 80.679688 111.019531 81.171875 111.378906 81.707031 C 111.734375 82.238281 112.035156 82.804688 112.28125 83.394531 C 112.527344 83.988281 112.710938 84.601562 112.835938 85.230469 C 112.960938 85.859375 113.023438 86.492188 113.023438 87.136719 Z M 113.023438 87.136719 " fill-opacity="1" fill-rule="nonzero"/></g><g clip-path="url(#12e66437eb)"><path fill="#00af66" d="M 290.136719 80.125 C 290.136719 80.765625 290.074219 81.398438 289.949219 82.023438 C 289.824219 82.648438 289.640625 83.257812 289.394531 83.847656 C 289.152344 84.4375 288.851562 84.996094 288.496094 85.527344 C 288.140625 86.058594 287.738281 86.546875 287.289062 87 C 286.835938 87.449219 286.34375 87.855469 285.816406 88.207031 C 285.285156 88.5625 284.722656 88.863281 284.132812 89.105469 C 283.542969 89.351562 282.9375 89.535156 282.3125 89.660156 C 281.683594 89.785156 281.050781 89.847656 280.414062 89.847656 C 279.777344 89.847656 279.144531 89.785156 278.519531 89.660156 C 277.890625 89.535156 277.285156 89.351562 276.695312 89.105469 C 276.105469 88.863281 275.542969 88.5625 275.015625 88.207031 C 274.484375 87.855469 273.992188 87.449219 273.539062 87 C 273.089844 86.546875 272.6875 86.058594 272.332031 85.527344 C 271.976562 84.996094 271.675781 84.4375 271.433594 83.847656 C 271.1875 83.257812 271.003906 82.648438 270.878906 82.023438 C 270.753906 81.398438 270.695312 80.765625 270.695312 80.125 C 270.695312 79.488281 270.753906 78.855469 270.878906 78.230469 C 271.003906 77.605469 271.1875 76.996094 271.433594 76.40625 C 271.675781 75.816406 271.976562 75.257812 272.332031 74.726562 C 272.6875 74.195312 273.089844 73.703125 273.539062 73.253906 C 273.992188 72.800781 274.484375 72.398438 275.015625 72.042969 C 275.542969 71.6875 276.105469 71.390625 276.695312 71.144531 C 277.285156 70.902344 277.890625 70.714844 278.519531 70.59375 C 279.144531 70.46875 279.777344 70.40625 280.414062 70.40625 C 281.050781 70.40625 281.683594 70.46875 282.3125 70.59375 C 282.9375 70.714844 283.542969 70.902344 284.132812 71.144531 C 284.722656 71.390625 285.285156 71.6875 285.816406 72.042969 C 286.34375 72.398438 286.835938 72.800781 287.289062 73.253906 C 287.738281 73.703125 288.140625 74.195312 288.496094 74.726562 C 288.851562 75.257812 289.152344 75.816406 289.394531 76.40625 C 289.640625 76.996094 289.824219 77.605469 289.949219 78.230469 C 290.074219 78.855469 290.136719 79.488281 290.136719 80.125 Z M 290.136719 80.125 " fill-opacity="1" fill-rule="nonzero"/></g><g clip-path="url(#451329608f)"><path fill="#00af66" d="M 201.949219 71.738281 C 201.949219 72.222656 201.855469 72.691406 201.667969 73.136719 C 201.484375 73.585938 201.21875 73.980469 200.875 74.324219 C 200.535156 74.667969 200.140625 74.929688 199.691406 75.117188 C 199.242188 75.300781 198.777344 75.394531 198.292969 75.394531 C 197.808594 75.394531 197.339844 75.300781 196.890625 75.117188 C 196.445312 74.929688 196.050781 74.667969 195.707031 74.324219 C 195.363281 73.980469 195.097656 73.585938 194.914062 73.136719 C 194.726562 72.691406 194.636719 72.222656 194.636719 71.738281 C 194.636719 71.253906 194.726562 70.789062 194.914062 70.339844 C 195.097656 69.890625 195.363281 69.496094 195.707031 69.152344 C 196.050781 68.808594 196.445312 68.546875 196.890625 68.359375 C 197.339844 68.175781 197.808594 68.082031 198.292969 68.082031 C 198.777344 68.082031 199.242188 68.175781 199.691406 68.359375 C 200.140625 68.546875 200.535156 68.808594 200.875 69.152344 C 201.21875 69.496094 201.484375 69.890625 201.667969 70.339844 C 201.855469 70.789062 201.949219 71.253906 201.949219 71.738281 Z M 201.949219 71.738281 " fill-opacity="1" fill-rule="nonzero"/></g><g clip-path="url(#3cd808eb4a)"><path fill="#00af66" d="M 74.070312 173.703125 C 74.070312 174.183594 73.976562 174.640625 73.792969 175.085938 C 73.609375 175.527344 73.351562 175.917969 73.011719 176.253906 C 72.671875 176.59375 72.28125 176.855469 71.839844 177.039062 C 71.398438 177.222656 70.9375 177.3125 70.460938 177.3125 C 69.980469 177.3125 69.519531 177.222656 69.078125 177.039062 C 68.636719 176.855469 68.246094 176.59375 67.90625 176.253906 C 67.570312 175.917969 67.308594 175.527344 67.125 175.085938 C 66.941406 174.640625 66.851562 174.183594 66.851562 173.703125 C 66.851562 173.226562 66.941406 172.765625 67.125 172.324219 C 67.308594 171.878906 67.570312 171.488281 67.90625 171.152344 C 68.246094 170.8125 68.636719 170.550781 69.078125 170.367188 C 69.519531 170.1875 69.980469 170.09375 70.460938 170.09375 C 70.9375 170.09375 71.398438 170.1875 71.839844 170.367188 C 72.28125 170.550781 72.671875 170.8125 73.011719 171.152344 C 73.351562 171.488281 73.609375 171.878906 73.792969 172.324219 C 73.976562 172.765625 74.070312 173.226562 74.070312 173.703125 Z M 74.070312 173.703125 " fill-opacity="1" fill-rule="nonzero"/></g><g clip-path="url(#0e976b9b8d)"><path fill="#00af66" d="M 81.296875 254.195312 C 81.296875 254.832031 81.234375 255.464844 81.109375 256.089844 C 80.984375 256.714844 80.800781 257.324219 80.558594 257.914062 C 80.3125 258.503906 80.011719 259.0625 79.660156 259.59375 C 79.304688 260.125 78.902344 260.617188 78.449219 261.066406 C 78 261.519531 77.507812 261.921875 76.976562 262.277344 C 76.445312 262.632812 75.886719 262.929688 75.296875 263.175781 C 74.707031 263.417969 74.097656 263.605469 73.472656 263.726562 C 72.847656 263.851562 72.214844 263.914062 71.574219 263.914062 C 70.9375 263.914062 70.304688 263.851562 69.679688 263.726562 C 69.054688 263.605469 68.445312 263.417969 67.855469 263.175781 C 67.265625 262.929688 66.707031 262.632812 66.175781 262.277344 C 65.644531 261.921875 65.152344 261.519531 64.703125 261.066406 C 64.25 260.617188 63.847656 260.125 63.492188 259.59375 C 63.140625 259.0625 62.839844 258.503906 62.59375 257.914062 C 62.351562 257.324219 62.167969 256.714844 62.042969 256.089844 C 61.917969 255.464844 61.855469 254.832031 61.855469 254.195312 C 61.855469 253.554688 61.917969 252.925781 62.042969 252.296875 C 62.167969 251.671875 62.351562 251.0625 62.59375 250.472656 C 62.839844 249.882812 63.140625 249.324219 63.492188 248.792969 C 63.847656 248.261719 64.25 247.773438 64.703125 247.320312 C 65.152344 246.871094 65.644531 246.464844 66.175781 246.113281 C 66.707031 245.757812 67.265625 245.457031 67.855469 245.214844 C 68.445312 244.96875 69.054688 244.785156 69.679688 244.660156 C 70.304688 244.535156 70.9375 244.472656 71.574219 244.472656 C 72.214844 244.472656 72.847656 244.535156 73.472656 244.660156 C 74.097656 244.785156 74.707031 244.96875 75.296875 245.214844 C 75.886719 245.457031 76.445312 245.757812 76.976562 246.113281 C 77.507812 246.464844 78 246.871094 78.449219 247.320312 C 78.902344 247.773438 79.304688 248.261719 79.660156 248.792969 C 80.011719 249.324219 80.3125 249.882812 80.558594 250.472656 C 80.800781 251.0625 80.984375 251.671875 81.109375 252.296875 C 81.234375 252.925781 81.296875 253.554688 81.296875 254.195312 Z M 81.296875 254.195312 " fill-opacity="1" fill-rule="nonzero"/></g><g clip-path="url(#b20fc3eb57)"><path fill="#00af66" d="M 127.476562 305.492188 C 127.476562 305.867188 127.4375 306.242188 127.367188 306.609375 C 127.292969 306.976562 127.183594 307.335938 127.039062 307.683594 C 126.894531 308.03125 126.71875 308.359375 126.511719 308.671875 C 126.300781 308.984375 126.066406 309.273438 125.796875 309.539062 C 125.53125 309.804688 125.242188 310.042969 124.929688 310.253906 C 124.617188 310.460938 124.289062 310.636719 123.941406 310.78125 C 123.59375 310.925781 123.234375 311.035156 122.867188 311.105469 C 122.5 311.179688 122.125 311.21875 121.75 311.21875 C 121.375 311.21875 121.003906 311.179688 120.632812 311.105469 C 120.265625 311.035156 119.90625 310.925781 119.558594 310.78125 C 119.210938 310.636719 118.882812 310.460938 118.570312 310.253906 C 118.257812 310.042969 117.96875 309.804688 117.703125 309.539062 C 117.4375 309.273438 117.199219 308.984375 116.992188 308.671875 C 116.78125 308.359375 116.605469 308.03125 116.460938 307.683594 C 116.316406 307.335938 116.210938 306.976562 116.136719 306.609375 C 116.0625 306.242188 116.027344 305.867188 116.027344 305.492188 C 116.027344 305.117188 116.0625 304.746094 116.136719 304.375 C 116.210938 304.007812 116.316406 303.648438 116.460938 303.300781 C 116.605469 302.953125 116.78125 302.625 116.992188 302.3125 C 117.199219 302 117.4375 301.710938 117.703125 301.445312 C 117.96875 301.179688 118.257812 300.941406 118.570312 300.734375 C 118.882812 300.523438 119.210938 300.347656 119.558594 300.203125 C 119.90625 300.058594 120.265625 299.949219 120.632812 299.878906 C 121.003906 299.804688 121.375 299.769531 121.75 299.769531 C 122.125 299.769531 122.5 299.804688 122.867188 299.878906 C 123.234375 299.949219 123.59375 300.058594 123.941406 300.203125 C 124.289062 300.347656 124.617188 300.523438 124.929688 300.734375 C 125.242188 300.941406 125.53125 301.179688 125.796875 301.445312 C 126.066406 301.710938 126.300781 302 126.511719 302.3125 C 126.71875 302.625 126.894531 302.953125 127.039062 303.300781 C 127.183594 303.648438 127.292969 304.007812 127.367188 304.375 C 127.4375 304.746094 127.476562 305.117188 127.476562 305.492188 Z M 127.476562 305.492188 " fill-opacity="1" fill-rule="nonzero"/></g><g clip-path="url(#735659a290)"><path fill="#00af66" d="M 206.171875 319.769531 C 206.171875 320.152344 206.097656 320.523438 205.949219 320.878906 C 205.804688 321.234375 205.59375 321.546875 205.320312 321.820312 C 205.050781 322.089844 204.734375 322.300781 204.378906 322.449219 C 204.023438 322.59375 203.65625 322.667969 203.269531 322.667969 C 202.886719 322.667969 202.515625 322.59375 202.160156 322.449219 C 201.804688 322.300781 201.492188 322.089844 201.21875 321.820312 C 200.949219 321.546875 200.738281 321.234375 200.589844 320.878906 C 200.445312 320.523438 200.371094 320.152344 200.371094 319.769531 C 200.371094 319.382812 200.445312 319.011719 200.589844 318.65625 C 200.738281 318.300781 200.949219 317.988281 201.21875 317.71875 C 201.492188 317.445312 201.804688 317.234375 202.160156 317.089844 C 202.515625 316.941406 202.886719 316.867188 203.269531 316.867188 C 203.65625 316.867188 204.023438 316.941406 204.378906 317.089844 C 204.734375 317.234375 205.050781 317.445312 205.320312 317.71875 C 205.59375 317.988281 205.804688 318.300781 205.949219 318.65625 C 206.097656 319.011719 206.171875 319.382812 206.171875 319.769531 Z M 206.171875 319.769531 " fill-opacity="1" fill-rule="nonzero"/></g><g clip-path="url(#86a4b32c99)"><path fill="#00af66" d="M 263.519531 296.855469 C 263.519531 297.242188 263.445312 297.609375 263.296875 297.964844 C 263.152344 298.320312 262.941406 298.636719 262.667969 298.90625 C 262.398438 299.179688 262.082031 299.386719 261.726562 299.535156 C 261.375 299.683594 261.003906 299.757812 260.617188 299.757812 C 260.234375 299.757812 259.863281 299.683594 259.507812 299.535156 C 259.152344 299.386719 258.839844 299.179688 258.566406 298.90625 C 258.296875 298.636719 258.085938 298.320312 257.9375 297.964844 C 257.792969 297.609375 257.71875 297.242188 257.71875 296.855469 C 257.71875 296.472656 257.792969 296.101562 257.9375 295.746094 C 258.085938 295.390625 258.296875 295.078125 258.566406 294.804688 C 258.839844 294.535156 259.152344 294.324219 259.507812 294.175781 C 259.863281 294.03125 260.234375 293.957031 260.617188 293.957031 C 261.003906 293.957031 261.375 294.03125 261.726562 294.175781 C 262.082031 294.324219 262.398438 294.535156 262.667969 294.804688 C 262.941406 295.078125 263.152344 295.390625 263.296875 295.746094 C 263.445312 296.101562 263.519531 296.472656 263.519531 296.855469 Z M 263.519531 296.855469 " fill-opacity="1" fill-rule="nonzero"/></g><g clip-path="url(#11e41cfd91)"><path fill="#00af66" d="M 285.136719 256.6875 C 285.136719 257.074219 285.0625 257.445312 284.914062 257.800781 C 284.765625 258.15625 284.558594 258.46875 284.285156 258.738281 C 284.015625 259.011719 283.699219 259.222656 283.34375 259.367188 C 282.988281 259.515625 282.621094 259.589844 282.234375 259.589844 C 281.851562 259.589844 281.480469 259.515625 281.125 259.367188 C 280.769531 259.222656 280.457031 259.011719 280.183594 258.738281 C 279.914062 258.46875 279.703125 258.15625 279.554688 257.800781 C 279.40625 257.445312 279.335938 257.074219 279.335938 256.6875 C 279.335938 256.304688 279.40625 255.933594 279.554688 255.578125 C 279.703125 255.222656 279.914062 254.910156 280.183594 254.636719 C 280.457031 254.367188 280.769531 254.15625 281.125 254.007812 C 281.480469 253.863281 281.851562 253.789062 282.234375 253.789062 C 282.621094 253.789062 282.988281 253.863281 283.34375 254.007812 C 283.699219 254.15625 284.015625 254.367188 284.285156 254.636719 C 284.558594 254.910156 284.765625 255.222656 284.914062 255.578125 C 285.0625 255.933594 285.136719 256.304688 285.136719 256.6875 Z M 285.136719 256.6875 " fill-opacity="1" fill-rule="nonzero"/></g><g clip-path="url(#c2698cfa03)"><path fill="#00af66" d="M 288.042969 218.4375 C 288.042969 218.824219 287.96875 219.195312 287.820312 219.550781 C 287.671875 219.90625 287.464844 220.21875 287.191406 220.488281 C 286.917969 220.761719 286.605469 220.972656 286.25 221.117188 C 285.894531 221.265625 285.527344 221.339844 285.140625 221.339844 C 284.757812 221.339844 284.386719 221.265625 284.03125 221.117188 C 283.675781 220.972656 283.363281 220.761719 283.089844 220.488281 C 282.816406 220.21875 282.609375 219.90625 282.460938 219.550781 C 282.3125 219.195312 282.242188 218.824219 282.242188 218.4375 C 282.242188 218.054688 282.3125 217.683594 282.460938 217.328125 C 282.609375 216.972656 282.816406 216.660156 283.089844 216.386719 C 283.363281 216.117188 283.675781 215.90625 284.03125 215.757812 C 284.386719 215.613281 284.757812 215.539062 285.140625 215.539062 C 285.527344 215.539062 285.894531 215.613281 286.25 215.757812 C 286.605469 215.90625 286.917969 216.117188 287.191406 216.386719 C 287.464844 216.660156 287.671875 216.972656 287.820312 217.328125 C 287.96875 217.683594 288.042969 218.054688 288.042969 218.4375 Z M 288.042969 218.4375 " fill-opacity="1" fill-rule="nonzero"/></g></svg>