<?xml version="1.0" encoding="UTF-8" standalone="no"?> <svg id="Line" xmlns="http://www.w3.org/2000/svg" viewBox="0 0 64 64"><title>Bubble Tea</title><path d="M46.45807,18.25647a4.882,4.882,0,0,0-4.84772-4.44885h-6.4209V5a.99973.99973,0,0,0-1-1h-4.3789a.99973.99973,0,0,0-1,1v8.80762h-6.4209a4.882,4.882,0,0,0-4.84772,4.44885,3.27853,3.27853,0,0,0-2.60541,3.204V23a.99974.99974,0,0,0,1,1h1.628L19.916,59.06689a1.00036,1.00036,0,0,0,.998.93311H43.08594a1.00036,1.00036,0,0,0,.998-.93311L46.43549,24h1.628a.99974.99974,0,0,0,1-1V21.46045A3.27853,3.27853,0,0,0,46.45807,18.25647Zm-4.84772-2.44885A2.89643,2.89643,0,0,1,44.457,18.187H35.18945V15.80762ZM30.81055,24h2.3789V35.5h-2.3789Zm0-2V20.187h2.3789V22Zm0-3.813V15.80762h2.3789V18.187Zm0-12.187h2.3789v7.80762h-2.3789Zm-8.4209,9.80762h6.4209V18.187H19.543A2.89643,2.89643,0,0,1,22.38965,15.80762Zm-5.45313,5.65283a1.32859,1.32859,0,0,1,1.56057-1.27339l10.31346,0V22c-1.01395.00008-11.20459-.00006-11.874,0ZM42.15039,58H21.84961L19.56934,24h9.24121V36.5a.99973.99973,0,0,0,1,1h4.3789a.99973.99973,0,0,0,1-1V24h9.24121Zm4.91309-36c-.62857-.00251-10.90672.00181-11.874,0l-.00005-1.813H45.50293a1.32861,1.32861,0,0,1,1.56053,1.27347Z"/></svg>