<?xml version="1.0" encoding="UTF-8"?>
<!DOCTYPE svg PUBLIC "-//W3C//DTD SVG 1.1//EN" "http://www.w3.org/Graphics/SVG/1.1/DTD/svg11.dtd">
<!-- Creator: CorelDRAW -->
<svg xmlns="http://www.w3.org/2000/svg" xml:space="preserve" width="1.70666in" height="1.70666in" version="1.1" style="shape-rendering:geometricPrecision; text-rendering:geometricPrecision; image-rendering:optimizeQuality; fill-rule:evenodd; clip-rule:evenodd"
viewBox="0 0 1707 1707"
 xmlns:xlink="http://www.w3.org/1999/xlink">
 <defs>
  <style type="text/css">
   <![CDATA[
    .fil0 {fill:black}
   ]]>
  </style>
 </defs>
 <g id="Layer_x0020_1">
  <metadata id="CorelCorpID_0Corel-Layer"/>
  <path class="fil0" d="M1037 481l228 -397c14,-23 -22,-44 -35,-20l-229 396c12,6 24,13 36,21zm60 1226l-527 0c-14,0 -25,-11 -27,-24l-74 -758c-47,0 -84,-37 -84,-82 0,-45 37,-82 82,-83 17,-239 258,-398 484,-321l232 -402c21,-35 66,-47 101,-27 36,20 48,66 28,101l-233 403c69,61 114,149 121,246 46,1 82,38 82,83 0,45 -36,82 -84,82l-74 758c-1,13 -13,24 -27,24zm-574 -782l27 275 92 0c76,-162 307,-162 383,0l92 0 27 -275 -621 0zm32 328l7 72 63 0c-4,-24 -4,-48 0,-72l-70 0zm12 126l27 274 479 0 27 -274 -75 0c-76,162 -307,162 -383,0l-75 0zm538 -54l7 -72 -70 0c4,24 4,48 0,72l63 0zm-585 -565l34 0c10,-14 23,-26 38,-35 9,-29 31,-53 61,-65 -26,-105 114,-177 200,-104 73,-28 154,22 153,95 45,4 83,34 95,74 16,9 29,21 38,35l8 0c-14,-160 -149,-287 -313,-287 -165,0 -300,127 -314,287zm116 0l421 0c-3,-3 -5,-8 -6,-13 -3,-31 -40,-50 -73,-41 -22,5 -41,-18 -30,-38 23,-44 -40,-86 -87,-57 -33,20 -35,-31 -91,-31 -51,0 -83,46 -58,83 11,16 0,39 -20,41 -26,3 -47,21 -50,43 0,5 -3,10 -6,13zm-169 54c-38,0 -38,58 0,58l733 0c38,0 38,-58 0,-58l-733 0zm367 317c-87,0 -158,71 -158,158 0,87 71,158 158,158 87,0 158,-71 158,-158 0,-87 -71,-158 -158,-158z"/>
 </g>
</svg>
