<?xml version="1.0" encoding="UTF-8" standalone="no"?> <svg xmlns="http://www.w3.org/2000/svg" viewBox="0 0 64 64"><defs><style>.cls-1,.cls-2{fill:none;stroke:#000;stroke-linejoin:round;stroke-width:2px;}.cls-1{stroke-linecap:round;}</style></defs><g id="motocycle"><line class="cls-1" x1="28.55" y1="15.05" x2="31.55" y2="18.05"/><line class="cls-1" x1="31.55" y1="15.05" x2="28.55" y2="18.05"/><path d="M40.45,10.86a1.07,1.07,0,1,1-1.07-1.07A1.07,1.07,0,0,1,40.45,10.86Z"/><circle class="cls-1" cx="49.5" cy="16.5" r="2.5"/><polyline class="cls-1" points="52.04 34 60 34 62 39 59.09 39"/><path class="cls-1" d="M13,42.66a7.41,7.41,0,0,0-1.5-.16,7,7,0,1,0,7,7,7.41,7.41,0,0,0-.16-1.5"/><circle class="cls-1" cx="11.5" cy="49.5" r="4"/><path class="cls-1" d="M44.76,47.61a7,7,0,1,0,13.48,0"/><path class="cls-1" d="M48.21,47.23a4,4,0,0,0-.71,2.27,4,4,0,1,0,7.43-2.06"/><circle cx="51.5" cy="49.5" r="1.5"/><circle cx="11.5" cy="49.5" r="1.5"/><path class="cls-1" d="M16.42,36.92C13.48,36.87,7.26,37.24,5,41h8s0,9,10,6"/><path class="cls-1" d="M35,44l-1.11-7.2a5,5,0,0,1,5-5.8H46l12,6,3,7Z"/><path class="cls-1" d="M48,26H35v3h3a2,2,0,0,0,2,2h2a2,2,0,0,0,2-2h1c1.1,0,3-1.9,3-3Z"/><line class="cls-1" x1="44" y1="31" x2="59" y2="31"/><polyline class="cls-1" points="42 47.23 42 50 23 50 23 47.23"/><polygon class="cls-1" points="23 44 18 29 15 29 15 32 20 47 61 47 61 44 23 44"/><polyline class="cls-1" points="17 29 15 23 11 23"/><circle class="cls-1" cx="21" cy="28" r="2"/><polygon class="cls-1" points="15 32 10 34 10 27 15 29 15 32"/><line class="cls-1" x1="1" y1="57" x2="63" y2="57"/><line class="cls-2" x1="46" y1="44" x2="46" y2="47"/></g></svg>