<svg width="24" height="24" viewBox="0 0 24 24" fill="none" xmlns="http://www.w3.org/2000/svg">
<path d="M4.62127 4.51493C4.80316 3.78737 4.8941 3.42359 5.16536 3.21179C5.43663 3 5.8116 3 6.56155 3H17.4384C18.1884 3 18.5634 3 18.8346 3.21179C19.1059 3.42359 19.1968 3.78737 19.3787 4.51493L20.5823 9.32938C20.6792 9.71675 20.7276 9.91044 20.7169 10.0678C20.6892 10.4757 20.416 10.8257 20.0269 10.9515C19.8769 11 19.6726 11 19.2641 11C18.7309 11 18.4644 11 18.2405 10.9478C17.6133 10.8017 17.0948 10.3625 16.8475 9.76782C16.7593 9.55555 16.7164 9.29856 16.6308 8.78457C16.6068 8.64076 16.5948 8.56886 16.5812 8.54994C16.5413 8.49439 16.4587 8.49439 16.4188 8.54994C16.4052 8.56886 16.3932 8.64076 16.3692 8.78457L16.2877 9.27381C16.2791 9.32568 16.2747 9.35161 16.2704 9.37433C16.0939 10.3005 15.2946 10.9777 14.352 10.9995C14.3289 11 14.3026 11 14.25 11C14.1974 11 14.1711 11 14.148 10.9995C13.2054 10.9777 12.4061 10.3005 12.2296 9.37433C12.2253 9.35161 12.2209 9.32568 12.2123 9.27381L12.1308 8.78457C12.1068 8.64076 12.0948 8.56886 12.0812 8.54994C12.0413 8.49439 11.9587 8.49439 11.9188 8.54994C11.9052 8.56886 11.8932 8.64076 11.8692 8.78457L11.7877 9.27381C11.7791 9.32568 11.7747 9.35161 11.7704 9.37433C11.5939 10.3005 10.7946 10.9777 9.85199 10.9995C9.82887 11 9.80258 11 9.75 11C9.69742 11 9.67113 11 9.64801 10.9995C8.70541 10.9777 7.90606 10.3005 7.7296 9.37433C7.72527 9.35161 7.72095 9.32568 7.7123 9.27381L7.63076 8.78457C7.60679 8.64076 7.59481 8.56886 7.58122 8.54994C7.54132 8.49439 7.45868 8.49439 7.41878 8.54994C7.40519 8.56886 7.39321 8.64076 7.36924 8.78457C7.28357 9.29856 7.24074 9.55555 7.15249 9.76782C6.90524 10.3625 6.38675 10.8017 5.75951 10.9478C5.53563 11 5.26905 11 4.73591 11C4.32737 11 4.12309 11 3.97306 10.9515C3.58403 10.8257 3.31078 10.4757 3.28307 10.0678C3.27239 9.91044 3.32081 9.71675 3.41765 9.32938L4.62127 4.51493Z" fill="#222222"/>
<path fill-rule="evenodd" clip-rule="evenodd" d="M5.01747 12.5002C5 12.9211 5 13.4152 5 14V20C5 20.9428 5 21.4142 5.29289 21.7071C5.58579 22 6.05719 22 7 22H10V18C10 17.4477 10.4477 17 11 17H13C13.5523 17 14 17.4477 14 18V22H17C17.9428 22 18.4142 22 18.7071 21.7071C19 21.4142 19 20.9428 19 20V14C19 13.4152 19 12.9211 18.9825 12.5002C18.6177 12.4993 18.2446 12.489 17.9002 12.4087C17.3808 12.2877 16.904 12.0519 16.5 11.7268C15.9159 12.1969 15.1803 12.4807 14.3867 12.4991C14.3456 12.5 14.3022 12.5 14.2609 12.5H14.2608L14.25 12.5L14.2392 12.5H14.2391C14.1978 12.5 14.1544 12.5 14.1133 12.4991C13.3197 12.4807 12.5841 12.1969 12 11.7268C11.4159 12.1969 10.6803 12.4807 9.88668 12.4991C9.84555 12.5 9.80225 12.5 9.76086 12.5H9.76077L9.75 12.5L9.73923 12.5H9.73914C9.69775 12.5 9.65445 12.5 9.61332 12.4991C8.8197 12.4807 8.08409 12.1969 7.5 11.7268C7.09596 12.0519 6.6192 12.2877 6.09984 12.4087C5.75542 12.489 5.38227 12.4993 5.01747 12.5002Z" fill="#222222"/>
</svg>
