<svg width="24" height="24" viewBox="0 0 24 24" fill="none" xmlns="http://www.w3.org/2000/svg">
<path d="M10.3072 7.21991C10.9493 5.61922 11.2704 4.81888 11.7919 4.70796C11.9291 4.67879 12.0708 4.67879 12.208 4.70796C12.7295 4.81888 13.0506 5.61922 13.6927 7.21991C14.0578 8.13019 14.2404 8.58533 14.582 8.8949C14.6778 8.98173 14.7818 9.05906 14.8926 9.12581C15.2874 9.36378 15.7803 9.40793 16.7661 9.49621C18.4348 9.64566 19.2692 9.72039 19.524 10.1961C19.5768 10.2947 19.6127 10.4013 19.6302 10.5117C19.7146 11.0448 19.1012 11.6028 17.8744 12.7189L17.5338 13.0289C16.9602 13.5507 16.6735 13.8116 16.5076 14.1372C16.4081 14.3325 16.3414 14.5429 16.3101 14.7598C16.258 15.1215 16.342 15.5 16.5099 16.257L16.5699 16.5275C16.8711 17.885 17.0217 18.5637 16.8337 18.8974C16.6649 19.1971 16.3538 19.3889 16.0102 19.4053C15.6277 19.4236 15.0887 18.9844 14.0107 18.106C13.3005 17.5273 12.9454 17.2379 12.5512 17.1249C12.191 17.0216 11.8089 17.0216 11.4487 17.1249C11.0545 17.2379 10.6994 17.5273 9.98917 18.106C8.91119 18.9844 8.37221 19.4236 7.98968 19.4053C7.64609 19.3889 7.33504 19.1971 7.16617 18.8974C6.97818 18.5637 7.12878 17.885 7.42997 16.5275L7.48998 16.257C7.65794 15.5 7.74191 15.1215 7.6898 14.7598C7.65854 14.5429 7.59182 14.3325 7.49232 14.1372C7.32645 13.8116 7.03968 13.5507 6.46613 13.0289L6.12546 12.7189C4.89867 11.6028 4.28527 11.0448 4.36975 10.5117C4.38724 10.4013 4.42312 10.2947 4.47589 10.1961C4.73069 9.72039 5.56507 9.64566 7.23384 9.49621C8.21962 9.40793 8.71251 9.36378 9.10735 9.12581C9.2181 9.05906 9.32211 8.98173 9.41793 8.8949C9.75954 8.58533 9.94211 8.13019 10.3072 7.21991Z" fill="#222222" stroke="#222222" stroke-width="2"/>
</svg>
